PathFileType	4	(X/Y/Z)	C:/Users/opensim2020/Desktop/walking_exp_matlab/subject03_walking07_straight_04.trc	
DataRate	CameraRate	NumFrames	NumMarkers	Units	OrigDataRate	OrigDataStartFrame	OrigNumFrames	
100.00	100.00	4	46	mm	100.00	2992	265	
Frame#	Time	LFHD			RFHD			LBHD			RBHD			C7			T10			CLAV			STRN			RBAK			LSHO			LUPA			LELB			LFRM			LWRA			LWRB			LFIN			RSHO			RUPA			RELB			RFRM			RWRA			RWRB			RFIN			LASI			RASI			LPSI			RPSI			LTHI			LKNE			LTIB			LANK			LHEE			LTOE			RTHI			RKNE			RTIB			RANK			RHEE			RTOE			*39			*40			*41			*42			*43			*44			*45			
		X1	Y1	Z1	X2	Y2	Z2	X3	Y3	Z3	X4	Y4	Z4	X5	Y5	Z5	X6	Y6	Z6	X7	Y7	Z7	X8	Y8	Z8	X9	Y9	Z9	X10	Y10	Z10	X11	Y11	Z11	X12	Y12	Z12	X13	Y13	Z13	X14	Y14	Z14	X15	Y15	Z15	X16	Y16	Z16	X17	Y17	Z17	X18	Y18	Z18	X19	Y19	Z19	X20	Y20	Z20	X21	Y21	Z21	X22	Y22	Z22	X23	Y23	Z23	X24	Y24	Z24	X25	Y25	Z25	X26	Y26	Z26	X27	Y27	Z27	X28	Y28	Z28	X29	Y29	Z29	X30	Y30	Z30	X31	Y31	Z31	X32	Y32	Z32	X33	Y33	Z33	X34	Y34	Z34	X35	Y35	Z35	X36	Y36	Z36	X37	Y37	Z37	X38	Y38	Z38	X39	Y39	Z39	X40	Y40	Z40	X41	Y41	Z41	X42	Y42	Z42	X43	Y43	Z43	X44	Y44	Z44	X45	Y45	Z45	X46	Y46	Z46	

34	0.330	-903.15222	737.70081	1612.78564	-1035.21655	746.27045	1625.92224	-901.38940	869.19171	1577.15491	-1031.97070	871.98743	1589.28662	-966.13715	908.87366	1421.29858	-972.03705	953.34998	1108.88818	-974.72083	791.00616	1340.24292	-974.24609	751.93140	1174.31677	-1064.12830	971.30701	1247.95435	-816.18805	824.50238	1373.54883	-750.26941	830.25653	1174.08557	-742.93042	827.59906	1050.46558	-749.19360	808.32385	921.55029	-783.34283	800.55109	803.44995	-728.87323	815.25909	808.65118	-743.52991	811.59271	723.54285	-1131.12354	840.44421	1367.62390	-1205.32251	832.24915	1146.15442	-1217.87744	810.39148	1035.27136	-1217.68872	780.91589	901.54608	-1180.51233	741.72443	811.15765	-1224.38440	772.05933	801.48114	-1212.22327	739.84198	734.78979	-859.76447	784.71643	945.70782	-1099.04712	793.23840	937.84467	-905.35828	948.90179	969.65912	-1054.57312	952.09631	968.78790	-820.72681	829.95032	644.83734	-861.70850	811.47583	467.55072	-858.95496	848.90167	275.88675	-900.50934	851.36548	65.91449	-935.89600	890.12115	30.39959	-923.27576	697.56659	30.77750	-1143.49951	821.72113	639.21252	-1125.14014	779.77618	464.21585	-1122.65759	923.69055	340.66565	-1077.95642	1085.12659	200.17419	-1019.69580	1133.65442	208.33591	-1073.63074	1028.83521	69.67531	-941.92682	819.39722	1682.75085																		 
35	0.340	-903.48608	728.24994	1612.71790	-1035.49390	737.03662	1625.78955	-901.46667	859.77130	1577.36963	-1032.01685	862.77014	1589.38672	-965.70959	900.86365	1422.24182	-971.26282	944.92621	1109.20874	-974.73560	782.35529	1340.38391	-974.07306	743.61743	1174.38354	-1063.37183	963.19452	1248.22473	-816.12952	815.44965	1373.85059	-750.15625	818.27332	1174.60071	-742.71698	813.38635	1051.13403	-749.00153	792.09308	922.47223	-782.95667	782.89630	804.63702	-728.31500	796.81610	809.59692	-742.34308	790.36395	724.98804	-1131.11096	832.35565	1367.56580	-1204.82544	825.76355	1145.76038	-1217.34485	804.73651	1034.71033	-1217.52026	777.27515	900.48926	-1180.71802	739.45612	809.42505	-1224.66089	769.90985	800.41058	-1212.93311	738.49774	733.35675	-858.91907	776.30133	945.87274	-1098.29932	784.58142	938.87244	-904.72400	940.30109	969.78082	-1053.91541	943.49786	969.23108	-820.82410	822.83484	644.60101	-861.47015	805.75745	467.41071	-858.79108	845.54626	275.94147	-900.62488	851.10651	66.05206	-935.71429	890.34290	30.76960	-923.38831	697.36389	30.74245	-1142.77673	807.87366	640.87469	-1124.41284	762.14838	466.35748	-1121.55237	903.86273	340.55780	-1076.61023	1063.26953	197.82198	-1018.89795	1112.36853	204.36688	-1071.92578	1002.72015	69.04642	-942.39862	809.74835	1683.22961																		 
36	0.350	-903.89142	718.77936	1612.69202	-1035.95068	727.79822	1625.61560	-901.58337	850.26617	1577.59290	-1032.17188	853.60541	1589.54602	-965.70349	891.45300	1421.90430	-970.54663	936.46838	1109.46277	-974.83722	773.81769	1340.48633	-973.88342	735.31439	1174.47498	-1062.69385	955.06317	1248.50671	-816.23083	806.55261	1374.26782	-749.99207	806.47235	1175.24927	-742.54779	799.07935	1051.96362	-748.87134	775.79529	923.68286	-782.60730	765.29419	805.89722	-727.76080	778.22400	810.94928	-741.21259	768.93573	726.87543	-1131.08728	824.32294	1367.65515	-1204.34033	819.29938	1145.54236	-1216.76013	799.11621	1034.29895	-1217.39624	773.70050	899.68323	-1180.92310	737.20172	807.87268	-1224.95398	767.68842	799.56854	-1213.66882	737.25366	732.11237	-858.14972	767.97253	946.09375	-1097.54199	775.93195	939.86713	-904.22473	931.80060	969.84393	-1053.37842	934.92438	969.63135	-820.37561	814.41412	644.61884	-861.20013	799.80695	467.17328	-858.59308	842.05957	275.99915	-900.68945	850.74609	66.14892	-935.75153	890.32642	30.95685	-923.36816	697.23383	30.65367	-1142.24011	793.90533	642.17780	-1123.67981	744.70294	468.64285	-1120.54565	883.84290	339.93927	-1075.61145	1040.57813	194.22665	-1018.32477	1090.26270	199.25215	-1070.16223	975.47101	67.82213	-942.85583	800.29175	1683.58948																		 
37	0.360	-904.39337	709.30176	1612.53601	-1036.37708	718.51752	1625.27686	-901.78430	840.98248	1577.92944	-1032.35889	844.47400	1589.66467	-965.30707	883.46387	1422.56616	-969.91022	928.12042	1109.64441	-974.85846	765.25201	1340.60156	-973.68219	727.09589	1174.51978	-1062.10876	946.90350	1248.80371	-816.25824	797.64832	1374.69788	-749.79785	794.99628	1176.14246	-742.38043	784.90515	1052.96484	-749.00250	759.32599	924.93927	-782.33191	747.41187	807.53638	-727.35242	759.55103	812.53741	-740.23346	747.34668	729.25562	-1131.03381	816.31232	1367.74304	-1203.87244	812.90143	1145.41113	-1216.31555	793.59912	1034.05811	-1217.28967	770.07373	899.03723	-1181.25696	734.83636	806.57831	-1225.21777	765.61652	798.80511	-1214.40149	735.98138	730.99890	-857.31445	759.17279	946.23016	-1096.75366	767.39923	940.66901	-903.77362	923.35022	969.81464	-1052.86609	926.36823	969.95190	-820.12897	807.18372	644.45947	-860.96179	793.94269	466.90405	-858.45117	838.49396	275.99704	-900.57483	850.51788	66.46127	-935.98895	890.04565	30.93684	-923.27020	697.22491	30.58006	-1141.49243	779.93524	643.51123	-1122.79663	727.64685	470.96674	-1119.77661	863.64166	338.88736	-1074.50891	1017.07416	189.58467	-1017.61810	1067.53833	193.05376	-1068.30164	947.31433	66.06369	-943.41211	790.62177	1683.70496																		 
